<svg width="636" height="651" viewBox="0 0 636 651" fill="none" xmlns="http://www.w3.org/2000/svg">
<path fill-rule="evenodd" clip-rule="evenodd" d="M0.591797 101.284C27.8391 61.9962 62.1932 28.0102 101.794 1.18616C147.762 71.5229 227.203 118 317.5 118C407.997 118 487.59 71.3161 533.511 0.717041C573.36 27.5832 607.923 61.69 635.315 101.151C632.556 101.051 629.784 101 627 101C502.736 101 402 201.736 402 326C402 450.264 502.736 551 627 551C627.342 551 627.684 550.999 628.025 550.998C598.521 590.703 561.569 624.545 519.237 650.458C472.065 591.076 399.229 553 317.5 553C235.96 553 163.272 590.9 116.091 650.045C74.0276 624.179 37.302 590.474 7.94959 550.964C9.29686 550.988 10.647 551 12 551C136.264 551 237 450.264 237 326C237 201.736 136.264 101 12 101C8.1742 101 4.37072 101.095 0.591797 101.284Z" fill="#D9D9D9"/>
</svg>
