<svg width="726" height="660" viewBox="0 0 726 660" fill="none" xmlns="http://www.w3.org/2000/svg">
<path fill-rule="evenodd" clip-rule="evenodd" d="M633 660C450.746 660 303 512.254 303 330C303 147.746 450.746 0 633 0C665.259 0 696.436 4.62861 725.905 13.2579C717.865 12.4253 709.725 12 701.5 12C551.002 12 429 154.373 429 330C429 505.627 551.002 648 701.5 648C709.725 648 717.865 647.575 725.905 646.742C696.436 655.371 665.259 660 633 660Z" fill="#D9D9D9"/>
<path fill-rule="evenodd" clip-rule="evenodd" d="M93 660C275.254 660 423 512.254 423 330C423 147.746 275.254 0 93 0C60.7415 0 29.564 4.6286 0.095459 13.2579C8.13501 12.4252 16.2749 12 24.5 12C174.998 12 297 154.373 297 330C297 505.627 174.998 648 24.5 648C16.2749 648 8.13501 647.575 0.095459 646.742C29.564 655.371 60.7415 660 93 660Z" fill="#D9D9D9"/>
</svg>
