<svg width="1505" height="1054" viewBox="0 0 1505 1054" fill="none" xmlns="http://www.w3.org/2000/svg">
<path d="M125.272 390.977C104.06 390.977 85.1679 387.331 68.5959 380.04C52.1186 372.653 39.0978 362.521 29.5334 349.642C20.0637 336.669 15.1868 321.706 14.9027 304.756H76.8345C77.2133 311.858 79.5334 318.108 83.7947 323.506C88.1508 328.809 93.9273 332.928 101.124 335.864C108.321 338.799 116.418 340.267 125.414 340.267C134.789 340.267 143.075 338.61 150.272 335.295C157.469 331.981 163.103 327.388 167.175 321.517C171.247 315.646 173.283 308.875 173.283 301.205C173.283 293.439 171.105 286.574 166.749 280.608C162.488 274.547 156.333 269.812 148.283 266.403C140.329 262.994 130.859 261.29 119.874 261.29H92.7436V216.119H119.874C129.155 216.119 137.346 214.509 144.448 211.29C151.645 208.07 157.232 203.619 161.21 197.938C165.187 192.161 167.175 185.438 167.175 177.767C167.175 170.475 165.424 164.083 161.92 158.591C158.511 153.004 153.681 148.648 147.431 145.523C141.276 142.398 134.079 140.835 125.84 140.835C117.507 140.835 109.884 142.35 102.971 145.381C96.058 148.316 90.5182 152.53 86.3516 158.023C82.1849 163.515 79.9595 169.955 79.6754 177.341H20.7266C21.0107 160.58 25.7929 145.807 35.0732 133.023C44.3535 120.239 56.8535 110.248 72.5732 103.051C88.3876 95.7595 106.238 92.1136 126.124 92.1136C146.2 92.1136 163.766 95.7595 178.823 103.051C193.88 110.343 205.575 120.191 213.908 132.597C222.336 144.907 226.503 158.733 226.408 174.074C226.503 190.362 221.437 203.951 211.21 214.841C201.077 225.731 187.867 232.644 171.579 235.58V237.852C192.98 240.598 209.268 248.032 220.442 260.153C231.711 272.18 237.299 287.237 237.204 305.324C237.299 321.896 232.516 336.621 222.857 349.5C213.293 362.379 200.083 372.511 183.227 379.898C166.371 387.284 147.052 390.977 125.272 390.977Z" fill="#123456"/>
<path d="M310 246.709L368.818 242.08C397.448 239.827 422.484 261.209 424.738 289.84L484.131 1044.51L373.473 1053.22L310 246.709Z" fill="#123456"/>
<rect x="373" y="242" width="1132" height="88" fill="#123456"/>
<path d="M130 616L373 1051V830.949L130 616Z" fill="#123456"/>
</svg>
