<svg width="945" height="1600" viewBox="0 0 945 1600" fill="none" xmlns="http://www.w3.org/2000/svg">
<path fill-rule="evenodd" clip-rule="evenodd" d="M741.905 660C559.651 660 411.905 512.254 411.905 330C411.905 147.746 559.651 0 741.905 0C774.163 0 805.341 4.62861 834.809 13.2579C826.77 12.4253 818.63 12 810.405 12C659.907 12 537.905 154.373 537.905 330C537.905 505.627 659.907 648 810.405 648C818.63 648 826.77 647.575 834.809 646.742C805.341 655.371 774.163 660 741.905 660Z" fill="#123456"/>
<path fill-rule="evenodd" clip-rule="evenodd" d="M201.904 660C384.158 660 531.904 512.254 531.904 330C531.904 147.746 384.158 0 201.904 0C169.646 0 138.468 4.62861 109 13.2579C117.04 12.4253 125.179 12 133.404 12C283.902 12 405.904 154.373 405.904 330C405.904 505.627 283.902 648 133.404 648C125.179 648 117.04 647.575 109 646.742C138.468 655.371 169.646 660 201.904 660Z" fill="#123456"/>
<path fill-rule="evenodd" clip-rule="evenodd" d="M741.905 1600C559.651 1600 411.905 1452.25 411.905 1270C411.905 1087.75 559.651 940 741.905 940C774.163 940 805.341 944.629 834.809 953.258C826.77 952.425 818.63 952 810.405 952C659.907 952 537.905 1094.37 537.905 1270C537.905 1445.63 659.907 1588 810.405 1588C818.63 1588 826.77 1587.57 834.809 1586.74C805.341 1595.37 774.163 1600 741.905 1600Z" fill="#123456"/>
<path fill-rule="evenodd" clip-rule="evenodd" d="M201.904 1600C384.158 1600 531.904 1452.25 531.904 1270C531.904 1087.75 384.158 940 201.904 940C169.646 940 138.468 944.629 109 953.258C117.04 952.425 125.179 952 133.404 952C283.902 952 405.904 1094.37 405.904 1270C405.904 1445.63 283.902 1588 133.404 1588C125.179 1588 117.04 1587.57 109 1586.74C138.468 1595.37 169.646 1600 201.904 1600Z" fill="#123456"/>
<rect y="754" width="945" height="91" fill="#123456"/>
</svg>
