<svg width="1601" height="1600" viewBox="0 0 1601 1600" fill="none" xmlns="http://www.w3.org/2000/svg">
<rect x="192.857" y="550" width="114.286" height="500" fill="#123456"/>
<rect y="857.143" width="114.286" height="500" transform="rotate(-90 0 857.143)" fill="#123456"/>
<path fill-rule="evenodd" clip-rule="evenodd" d="M1397.9 660C1215.65 660 1067.9 512.254 1067.9 330C1067.9 147.746 1215.65 0 1397.9 0C1430.16 0 1461.34 4.62861 1490.81 13.2579C1482.77 12.4253 1474.63 12 1466.4 12C1315.91 12 1193.9 154.373 1193.9 330C1193.9 505.627 1315.91 648 1466.4 648C1474.63 648 1482.77 647.575 1490.81 646.742C1461.34 655.371 1430.16 660 1397.9 660Z" fill="#123456"/>
<path fill-rule="evenodd" clip-rule="evenodd" d="M857.905 660C1040.16 660 1187.9 512.254 1187.9 330C1187.9 147.746 1040.16 0 857.905 0C825.646 0 794.469 4.62861 765 13.2579C773.04 12.4253 781.18 12 789.405 12C939.902 12 1061.9 154.373 1061.9 330C1061.9 505.627 939.902 648 789.405 648C781.18 648 773.04 647.575 765 646.742C794.469 655.371 825.646 660 857.905 660Z" fill="#123456"/>
<path fill-rule="evenodd" clip-rule="evenodd" d="M1397.9 1600C1215.65 1600 1067.9 1452.25 1067.9 1270C1067.9 1087.75 1215.65 940 1397.9 940C1430.16 940 1461.34 944.629 1490.81 953.258C1482.77 952.425 1474.63 952 1466.4 952C1315.91 952 1193.9 1094.37 1193.9 1270C1193.9 1445.63 1315.91 1588 1466.4 1588C1474.63 1588 1482.77 1587.57 1490.81 1586.74C1461.34 1595.37 1430.16 1600 1397.9 1600Z" fill="#123456"/>
<path fill-rule="evenodd" clip-rule="evenodd" d="M857.905 1600C1040.16 1600 1187.9 1452.25 1187.9 1270C1187.9 1087.75 1040.16 940 857.905 940C825.646 940 794.469 944.629 765 953.258C773.04 952.425 781.18 952 789.405 952C939.902 952 1061.9 1094.37 1061.9 1270C1061.9 1445.63 939.902 1588 789.405 1588C781.18 1588 773.04 1587.57 765 1586.74C794.469 1595.37 825.646 1600 857.905 1600Z" fill="#123456"/>
<rect x="656" y="754" width="945" height="91" fill="#123456"/>
</svg>
