<svg width="2844" height="1600" viewBox="0 0 2844 1600" fill="none" xmlns="http://www.w3.org/2000/svg">
<path fill-rule="evenodd" clip-rule="evenodd" d="M741.905 660C559.651 660 411.905 512.254 411.905 330C411.905 147.746 559.651 0 741.905 0C774.163 0 805.341 4.62861 834.809 13.2579C826.77 12.4253 818.63 12 810.405 12C659.907 12 537.905 154.373 537.905 330C537.905 505.627 659.907 648 810.405 648C818.63 648 826.77 647.575 834.809 646.742C805.341 655.371 774.163 660 741.905 660Z" fill="#123456"/>
<path fill-rule="evenodd" clip-rule="evenodd" d="M201.904 660C384.158 660 531.904 512.254 531.904 330C531.904 147.746 384.158 0 201.904 0C169.646 0 138.468 4.62861 109 13.2579C117.039 12.4253 125.179 12 133.404 12C283.902 12 405.904 154.373 405.904 330C405.904 505.627 283.902 648 133.404 648C125.179 648 117.039 647.575 109 646.742C138.468 655.371 169.646 660 201.904 660Z" fill="#123456"/>
<path fill-rule="evenodd" clip-rule="evenodd" d="M741.905 1600C559.651 1600 411.905 1452.25 411.905 1270C411.905 1087.75 559.651 940 741.905 940C774.163 940 805.341 944.629 834.809 953.258C826.77 952.425 818.63 952 810.405 952C659.907 952 537.905 1094.37 537.905 1270C537.905 1445.63 659.907 1588 810.405 1588C818.63 1588 826.77 1587.57 834.809 1586.74C805.341 1595.37 774.163 1600 741.905 1600Z" fill="#123456"/>
<path fill-rule="evenodd" clip-rule="evenodd" d="M201.904 1600C384.158 1600 531.904 1452.25 531.904 1270C531.904 1087.75 384.158 940 201.904 940C169.646 940 138.468 944.629 109 953.258C117.039 952.425 125.179 952 133.404 952C283.902 952 405.904 1094.37 405.904 1270C405.904 1445.63 283.902 1588 133.404 1588C125.179 1588 117.039 1587.57 109 1586.74C138.468 1595.37 169.646 1600 201.904 1600Z" fill="#123456"/>
<rect x="-0.00012207" y="754" width="945" height="91" fill="#123456"/>
<rect x="1048" y="725" width="466" height="152" fill="#123456"/>
<path d="M1854.05 800.584L1514.05 630V970L1854.05 800.584Z" fill="#123456"/>
<path d="M2360.81 1072.36V1026.34C2360.81 991.398 2368.2 959.295 2382.97 930.034C2398.03 900.489 2419.76 876.909 2448.17 859.295C2476.86 841.398 2511.81 832.449 2553 832.449C2594.76 832.449 2629.85 841.256 2658.26 858.869C2686.95 876.483 2708.54 900.062 2723.03 929.608C2737.8 958.869 2745.19 991.114 2745.19 1026.34V1072.36C2745.19 1107.31 2737.8 1139.55 2723.03 1169.1C2708.26 1198.36 2686.52 1221.8 2657.83 1239.41C2629.14 1257.31 2594.19 1266.26 2553 1266.26C2511.24 1266.26 2476.15 1257.31 2447.74 1239.41C2419.34 1221.8 2397.74 1198.36 2382.97 1169.1C2368.2 1139.55 2360.81 1107.31 2360.81 1072.36ZM2484.82 1026.34V1072.36C2484.82 1092.53 2489.65 1111.57 2499.31 1129.47C2509.25 1147.36 2527.15 1156.31 2553 1156.31C2578.85 1156.31 2596.47 1147.51 2605.84 1129.89C2615.5 1112.28 2620.33 1093.1 2620.33 1072.36V1026.34C2620.33 1005.6 2615.78 986.284 2606.69 968.386C2597.6 950.489 2579.7 941.54 2553 941.54C2527.43 941.54 2509.68 950.489 2499.73 968.386C2489.79 986.284 2484.82 1005.6 2484.82 1026.34ZM1912.94 572.932V526.909C1912.94 491.682 1920.47 459.437 1935.53 430.176C1950.59 400.631 1972.32 377.051 2000.73 359.438C2029.42 341.824 2064.08 333.017 2104.7 333.017C2146.75 333.017 2181.98 341.824 2210.39 359.438C2238.8 377.051 2260.39 400.631 2275.16 430.176C2289.93 459.437 2297.32 491.682 2297.32 526.909V572.932C2297.32 608.159 2289.79 640.403 2274.73 669.665C2259.96 698.926 2238.23 722.364 2209.53 739.977C2181.13 757.307 2146.18 765.972 2104.7 765.972C2063.23 765.972 2028.14 757.165 1999.45 739.551C1971.04 721.653 1949.45 698.216 1934.68 669.239C1920.19 639.977 1912.94 607.875 1912.94 572.932ZM2037.8 526.909V572.932C2037.8 593.67 2042.63 612.847 2052.29 630.46C2062.23 648.074 2079.7 656.881 2104.7 656.881C2130.84 656.881 2148.6 648.074 2157.97 630.46C2167.63 612.847 2172.46 593.67 2172.46 572.932V526.909C2172.46 506.17 2167.91 486.852 2158.82 468.955C2149.73 451.057 2131.69 442.108 2104.7 442.108C2079.42 442.108 2061.95 451.199 2052.29 469.381C2042.63 487.562 2037.8 506.739 2037.8 526.909ZM1969.19 1236L2569.19 363.273H2680.84L2080.84 1236H1969.19Z" fill="#123456"/>
</svg>
