<svg width="1705" height="1600" viewBox="0 0 1705 1600" fill="none" xmlns="http://www.w3.org/2000/svg">
<rect x="136.817" y="663.629" width="114.286" height="500" transform="rotate(-45 136.817 663.629)" fill="#123456"/>
<rect x="217.629" y="1017.18" width="114.286" height="500" transform="rotate(-135 217.629 1017.18)" fill="#123456"/>
<path fill-rule="evenodd" clip-rule="evenodd" d="M1501.9 660C1319.65 660 1171.9 512.254 1171.9 330C1171.9 147.746 1319.65 0 1501.9 0C1534.16 0 1565.34 4.62861 1594.81 13.2579C1586.77 12.4253 1578.63 12 1570.4 12C1419.91 12 1297.9 154.373 1297.9 330C1297.9 505.627 1419.91 648 1570.4 648C1578.63 648 1586.77 647.575 1594.81 646.742C1565.34 655.371 1534.16 660 1501.9 660Z" fill="#123456"/>
<path fill-rule="evenodd" clip-rule="evenodd" d="M961.904 660C1144.16 660 1291.9 512.254 1291.9 330C1291.9 147.746 1144.16 0 961.904 0C929.646 0 898.468 4.62861 869 13.2579C877.04 12.4253 885.179 12 893.404 12C1043.9 12 1165.9 154.373 1165.9 330C1165.9 505.627 1043.9 648 893.404 648C885.179 648 877.04 647.575 869 646.742C898.468 655.371 929.646 660 961.904 660Z" fill="#123456"/>
<path fill-rule="evenodd" clip-rule="evenodd" d="M1501.9 1600C1319.65 1600 1171.9 1452.25 1171.9 1270C1171.9 1087.75 1319.65 940 1501.9 940C1534.16 940 1565.34 944.629 1594.81 953.258C1586.77 952.425 1578.63 952 1570.4 952C1419.91 952 1297.9 1094.37 1297.9 1270C1297.9 1445.63 1419.91 1588 1570.4 1588C1578.63 1588 1586.77 1587.57 1594.81 1586.74C1565.34 1595.37 1534.16 1600 1501.9 1600Z" fill="#123456"/>
<path fill-rule="evenodd" clip-rule="evenodd" d="M961.904 1600C1144.16 1600 1291.9 1452.25 1291.9 1270C1291.9 1087.75 1144.16 940 961.904 940C929.646 940 898.468 944.629 869 953.258C877.04 952.425 885.179 952 893.404 952C1043.9 952 1165.9 1094.37 1165.9 1270C1165.9 1445.63 1043.9 1588 893.404 1588C885.179 1588 877.04 1587.57 869 1586.74C898.468 1595.37 929.646 1600 961.904 1600Z" fill="#123456"/>
<rect x="760" y="754" width="945" height="91" fill="#123456"/>
</svg>
