<svg width="3726" height="1313" viewBox="0 0 3726 1313" fill="none" xmlns="http://www.w3.org/2000/svg">
<path d="M211.648 241.727V969H60.3693V241.727H211.648ZM579.279 979.653C524.118 979.653 476.415 967.935 436.168 944.497C396.159 920.823 365.264 887.916 343.484 845.776C321.703 803.399 310.813 754.275 310.813 698.403C310.813 642.059 321.703 592.816 343.484 550.676C365.264 508.299 396.159 475.392 436.168 451.955C476.415 428.28 524.118 416.443 579.279 416.443C634.44 416.443 682.025 428.28 722.035 451.955C762.281 475.392 793.294 508.299 815.075 550.676C836.855 592.816 847.745 642.059 847.745 698.403C847.745 754.275 836.855 803.399 815.075 845.776C793.294 887.916 762.281 920.823 722.035 944.497C682.025 967.935 634.44 979.653 579.279 979.653ZM579.989 862.466C605.084 862.466 626.036 855.364 642.844 841.159C659.653 826.718 672.319 807.068 680.842 782.21C689.601 757.352 693.981 729.062 693.981 697.338C693.981 665.615 689.601 637.324 680.842 612.466C672.319 587.608 659.653 567.958 642.844 553.517C626.036 539.076 605.084 531.855 579.989 531.855C554.658 531.855 533.351 539.076 516.069 553.517C499.023 567.958 486.121 587.608 477.362 612.466C468.839 637.324 464.577 665.615 464.577 697.338C464.577 729.062 468.839 757.352 477.362 782.21C486.121 807.068 499.023 826.718 516.069 841.159C533.351 855.364 554.658 862.466 579.989 862.466ZM1191.85 1184.91C1142.84 1184.91 1100.82 1178.16 1065.78 1164.67C1030.98 1151.41 1003.28 1133.3 982.688 1110.34C962.092 1087.37 948.716 1061.57 942.56 1032.92L1082.48 1014.1C1086.74 1024.99 1093.48 1035.17 1102.72 1044.64C1111.95 1054.11 1124.14 1061.68 1139.29 1067.37C1154.68 1073.29 1173.38 1076.24 1195.4 1076.24C1228.31 1076.24 1255.42 1068.2 1276.72 1052.1C1298.27 1036.23 1309.04 1009.6 1309.04 972.196V872.409H1302.65C1296.02 887.561 1286.07 901.884 1272.82 915.378C1259.56 928.872 1242.51 939.881 1221.68 948.403C1200.85 956.926 1175.99 961.188 1147.11 961.188C1106.15 961.188 1068.86 951.718 1035.25 932.778C1001.86 913.602 975.231 884.365 955.344 845.065C935.695 805.529 925.87 755.577 925.87 695.207C925.87 633.418 935.932 581.808 956.055 540.378C976.178 498.948 1002.93 467.935 1036.31 447.338C1069.93 426.741 1106.74 416.443 1146.75 416.443C1177.29 416.443 1202.86 421.652 1223.46 432.068C1244.05 442.248 1260.62 455.032 1273.17 470.42C1285.96 485.572 1295.78 500.487 1302.65 515.165H1308.33V423.545H1458.54V974.327C1458.54 1020.73 1447.18 1059.55 1424.45 1090.8C1401.72 1122.05 1370.24 1145.49 1329.99 1161.12C1289.98 1176.98 1243.93 1184.91 1191.85 1184.91ZM1195.05 847.551C1219.43 847.551 1240.03 841.514 1256.84 829.44C1273.88 817.13 1286.9 799.611 1295.9 776.884C1305.13 753.92 1309.75 726.457 1309.75 694.497C1309.75 662.537 1305.25 634.838 1296.25 611.401C1287.26 587.726 1274.24 569.379 1257.19 556.358C1240.15 543.337 1219.43 536.827 1195.05 536.827C1170.19 536.827 1149.24 543.574 1132.19 557.068C1115.15 570.326 1102.24 588.792 1093.48 612.466C1084.72 636.14 1080.34 663.484 1080.34 694.497C1080.34 725.984 1084.72 753.209 1093.48 776.173C1102.48 798.901 1115.38 816.538 1132.19 829.085C1149.24 841.396 1170.19 847.551 1195.05 847.551ZM2075.2 677.452C2075.2 589.384 2086.91 508.299 2110.35 434.199C2134.03 360.098 2170.13 291.443 2218.66 228.233H2363.19C2344.73 251.67 2327.56 280.316 2311.7 314.17C2295.84 347.788 2281.99 384.72 2270.15 424.966C2258.32 465.212 2249.08 506.879 2242.45 549.966C2235.83 592.816 2232.51 635.312 2232.51 677.452C2232.51 733.56 2238.19 790.259 2249.56 847.551C2261.16 904.606 2276.78 957.636 2296.43 1006.64C2316.32 1055.65 2338.57 1095.78 2363.19 1127.03H2218.66C2170.13 1063.82 2134.03 995.16 2110.35 921.06C2086.91 846.959 2075.2 765.757 2075.2 677.452ZM3631.75 677.452C3631.75 765.757 3619.91 846.959 3596.24 921.06C3572.8 995.16 3536.81 1063.82 3488.28 1127.03H3343.75C3362.22 1103.59 3379.38 1074.94 3395.24 1041.09C3411.1 1007.23 3424.95 970.302 3436.79 930.293C3448.63 890.046 3457.86 848.38 3464.49 805.293C3471.12 762.205 3474.43 719.592 3474.43 677.452C3474.43 621.344 3468.63 564.762 3457.03 507.707C3445.67 450.416 3430.04 397.385 3410.16 348.616C3390.51 299.611 3368.37 259.483 3343.75 228.233H3488.28C3536.81 291.443 3572.8 360.098 3596.24 434.199C3619.91 508.299 3631.75 589.384 3631.75 677.452Z" fill="#123456"/>
<path fill-rule="evenodd" clip-rule="evenodd" d="M1942.76 1312.75C1828.51 1312.75 1735.89 1220.13 1735.89 1105.87C1735.89 991.62 1828.51 899 1942.76 899C1962.98 899 1982.53 901.902 2001 907.311C1995.96 906.789 1990.86 906.523 1985.7 906.523C1891.36 906.523 1814.87 995.775 1814.87 1105.87C1814.87 1215.97 1891.36 1305.22 1985.7 1305.22C1990.86 1305.22 1995.96 1304.96 2001 1304.43C1982.53 1309.84 1962.98 1312.75 1942.76 1312.75Z" fill="#123456"/>
<path fill-rule="evenodd" clip-rule="evenodd" d="M1604.24 1312.75C1718.49 1312.75 1811.11 1220.13 1811.11 1105.87C1811.11 991.62 1718.49 899 1604.24 899C1584.02 899 1564.47 901.902 1546 907.311C1551.04 906.789 1556.14 906.523 1561.3 906.523C1655.64 906.523 1732.13 995.775 1732.13 1105.87C1732.13 1215.97 1655.64 1305.22 1561.3 1305.22C1556.14 1305.22 1551.04 1304.96 1546 1304.43C1564.47 1309.84 1584.02 1312.75 1604.24 1312.75Z" fill="#123456"/>
<path fill-rule="evenodd" clip-rule="evenodd" d="M3124.9 1011C2942.65 1011 2794.9 863.254 2794.9 681C2794.9 498.746 2942.65 351 3124.9 351C3157.16 351 3188.34 355.629 3217.81 364.258C3209.77 363.425 3201.63 363 3193.4 363C3042.91 363 2920.9 505.373 2920.9 681C2920.9 856.627 3042.91 999 3193.4 999C3201.63 999 3209.77 998.575 3217.81 997.742C3188.34 1006.37 3157.16 1011 3124.9 1011Z" fill="#123456"/>
<path fill-rule="evenodd" clip-rule="evenodd" d="M2584.9 1011C2767.16 1011 2914.9 863.254 2914.9 681C2914.9 498.746 2767.16 351 2584.9 351C2552.65 351 2521.47 355.629 2492 364.258C2500.04 363.425 2508.18 363 2516.4 363C2666.9 363 2788.9 505.373 2788.9 681C2788.9 856.627 2666.9 999 2516.4 999C2508.18 999 2500.04 998.575 2492 997.742C2521.47 1006.37 2552.65 1011 2584.9 1011Z" fill="#123456"/>
</svg>
