<svg width="2171" height="1452" viewBox="0 0 2171 1452" fill="none" xmlns="http://www.w3.org/2000/svg">
<path d="M1687.81 998.364V952.341C1687.81 917.398 1695.2 885.295 1709.97 856.034C1725.03 826.489 1746.76 802.909 1775.17 785.295C1803.86 767.398 1838.81 758.449 1880 758.449C1921.76 758.449 1956.85 767.256 1985.26 784.869C2013.95 802.483 2035.54 826.062 2050.03 855.608C2064.8 884.869 2072.19 917.114 2072.19 952.341V998.364C2072.19 1033.31 2064.8 1065.55 2050.03 1095.1C2035.26 1124.36 2013.52 1147.8 1984.83 1165.41C1956.14 1183.31 1921.19 1192.26 1880 1192.26C1838.24 1192.26 1803.15 1183.31 1774.74 1165.41C1746.34 1147.8 1724.74 1124.36 1709.97 1095.1C1695.2 1065.55 1687.81 1033.31 1687.81 998.364ZM1811.82 952.341V998.364C1811.82 1018.53 1816.65 1037.57 1826.31 1055.47C1836.25 1073.36 1854.15 1082.31 1880 1082.31C1905.85 1082.31 1923.47 1073.51 1932.84 1055.89C1942.5 1038.28 1947.33 1019.1 1947.33 998.364V952.341C1947.33 931.602 1942.78 912.284 1933.69 894.386C1924.6 876.489 1906.7 867.54 1880 867.54C1854.43 867.54 1836.68 876.489 1826.73 894.386C1816.79 912.284 1811.82 931.602 1811.82 952.341ZM1239.94 498.932V452.909C1239.94 417.682 1247.47 385.437 1262.53 356.176C1277.59 326.631 1299.32 303.051 1327.73 285.438C1356.42 267.824 1391.08 259.017 1431.7 259.017C1473.75 259.017 1508.98 267.824 1537.39 285.438C1565.8 303.051 1587.39 326.631 1602.16 356.176C1616.93 385.437 1624.32 417.682 1624.32 452.909V498.932C1624.32 534.159 1616.79 566.403 1601.73 595.665C1586.96 624.926 1565.23 648.364 1536.53 665.977C1508.13 683.307 1473.18 691.972 1431.7 691.972C1390.23 691.972 1355.14 683.165 1326.45 665.551C1298.04 647.653 1276.45 624.216 1261.68 595.239C1247.19 565.977 1239.94 533.875 1239.94 498.932ZM1364.8 452.909V498.932C1364.8 519.67 1369.63 538.847 1379.29 556.46C1389.23 574.074 1406.7 582.881 1431.7 582.881C1457.84 582.881 1475.6 574.074 1484.97 556.46C1494.63 538.847 1499.46 519.67 1499.46 498.932V452.909C1499.46 432.17 1494.91 412.852 1485.82 394.955C1476.73 377.057 1458.69 368.108 1431.7 368.108C1406.42 368.108 1388.95 377.199 1379.29 395.381C1369.63 413.562 1364.8 432.739 1364.8 452.909ZM1296.19 1162L1896.19 289.273H2007.84L1407.84 1162H1296.19Z" fill="#123456"/>
<path fill-rule="evenodd" clip-rule="evenodd" d="M908.623 1199.52C646.972 1199.52 434.862 987.412 434.862 725.761C434.862 464.11 646.972 252 908.623 252C954.935 252 999.694 258.645 1042 271.034C1030.46 269.838 1018.77 269.228 1006.96 269.228C790.904 269.228 615.752 473.625 615.752 725.761C615.752 977.897 790.904 1182.29 1006.96 1182.29C1018.77 1182.29 1030.46 1181.68 1042 1180.49C999.694 1192.88 954.935 1199.52 908.623 1199.52Z" fill="#123456"/>
<path fill-rule="evenodd" clip-rule="evenodd" d="M133.378 1199.52C395.029 1199.52 607.139 987.412 607.139 725.761C607.139 464.11 395.029 252 133.378 252C87.066 252 42.3064 258.645 0.000273616 271.034C11.5421 269.838 23.2281 269.228 35.0363 269.228C251.097 269.228 426.248 473.625 426.248 725.761C426.248 977.897 251.097 1182.29 35.0363 1182.29C23.228 1182.29 11.542 1181.68 0 1180.49C42.3062 1192.88 87.0659 1199.52 133.378 1199.52Z" fill="#123456"/>
</svg>
