<svg width="3720" height="1210" viewBox="0 0 3720 1210" fill="none" xmlns="http://www.w3.org/2000/svg">
<path d="M93.75 677.452C93.75 589.384 105.469 508.299 128.906 434.199C152.58 360.098 188.684 291.443 237.216 228.233H381.747C363.281 251.67 346.117 280.316 330.256 314.17C314.394 347.788 300.545 384.72 288.707 424.966C276.87 465.212 267.637 506.879 261.009 549.966C254.38 592.816 251.065 635.312 251.065 677.452C251.065 733.56 256.747 790.259 268.111 847.551C279.711 904.606 295.336 957.636 314.986 1006.64C334.872 1055.65 357.126 1095.78 381.747 1127.03H237.216C188.684 1063.82 152.58 995.16 128.906 921.06C105.469 846.959 93.75 765.757 93.75 677.452ZM1418.86 677.452C1418.86 765.757 1407.02 846.959 1383.35 921.06C1359.91 995.16 1323.92 1063.82 1275.39 1127.03H1130.86C1149.33 1103.59 1166.49 1074.94 1182.35 1041.09C1198.21 1007.23 1212.06 970.302 1223.9 930.293C1235.74 890.046 1244.97 848.38 1251.6 805.293C1258.23 762.205 1261.54 719.592 1261.54 677.452C1261.54 621.344 1255.74 564.762 1244.14 507.707C1232.78 450.416 1217.15 397.385 1197.27 348.616C1177.62 299.611 1155.48 259.483 1130.86 228.233H1275.39C1323.92 291.443 1359.91 360.098 1383.35 434.199C1407.02 508.299 1418.86 589.384 1418.86 677.452ZM1606.45 677.452C1606.45 589.384 1618.16 508.299 1641.6 434.199C1665.28 360.098 1701.38 291.443 1749.91 228.233H1894.44C1875.98 251.67 1858.81 280.316 1842.95 314.17C1827.09 347.788 1813.24 384.72 1801.4 424.966C1789.57 465.212 1780.33 506.879 1773.7 549.966C1767.08 592.816 1763.76 635.312 1763.76 677.452C1763.76 733.56 1769.44 790.259 1780.81 847.551C1792.41 904.606 1808.03 957.636 1827.68 1006.64C1847.57 1055.65 1869.82 1095.78 1894.44 1127.03H1749.91C1701.38 1063.82 1665.28 995.16 1641.6 921.06C1618.16 846.959 1606.45 765.757 1606.45 677.452ZM3625.89 677.452C3625.89 765.757 3614.05 846.959 3590.38 921.06C3566.94 995.16 3530.95 1063.82 3482.42 1127.03H3337.89C3356.36 1103.59 3373.52 1074.94 3389.38 1041.09C3405.24 1007.23 3419.09 970.302 3430.93 930.293C3442.77 890.046 3452 848.38 3458.63 805.293C3465.26 762.205 3468.57 719.592 3468.57 677.452C3468.57 621.344 3462.77 564.762 3451.17 507.707C3439.81 450.416 3424.18 397.385 3404.3 348.616C3384.65 299.611 3362.51 259.483 3337.89 228.233H3482.42C3530.95 291.443 3566.94 360.098 3590.38 434.199C3614.05 508.299 3625.89 589.384 3625.89 677.452Z" fill="#123456"/>
<path fill-rule="evenodd" clip-rule="evenodd" d="M3214.9 1028C3032.65 1028 2884.9 880.254 2884.9 698C2884.9 515.746 3032.65 368 3214.9 368C3247.16 368 3278.34 372.629 3307.81 381.258C3299.77 380.425 3291.63 380 3283.4 380C3132.91 380 3010.9 522.373 3010.9 698C3010.9 873.627 3132.91 1016 3283.4 1016C3291.63 1016 3299.77 1015.57 3307.81 1014.74C3278.34 1023.37 3247.16 1028 3214.9 1028Z" fill="#123456"/>
<path fill-rule="evenodd" clip-rule="evenodd" d="M2674.9 1028C2857.16 1028 3004.9 880.254 3004.9 698C3004.9 515.746 2857.16 368 2674.9 368C2642.65 368 2611.47 372.629 2582 381.258C2590.04 380.425 2598.18 380 2606.4 380C2756.9 380 2878.9 522.373 2878.9 698C2878.9 873.627 2756.9 1016 2606.4 1016C2598.18 1016 2590.04 1015.57 2582 1014.74C2611.47 1023.37 2642.65 1028 2674.9 1028Z" fill="#123456"/>
<path fill-rule="evenodd" clip-rule="evenodd" d="M1020.9 1006C838.651 1006 690.905 858.254 690.905 676C690.905 493.746 838.651 346 1020.9 346C1053.16 346 1084.34 350.629 1113.81 359.258C1105.77 358.425 1097.63 358 1089.4 358C938.907 358 816.905 500.373 816.905 676C816.905 851.627 938.907 994 1089.4 994C1097.63 994 1105.77 993.575 1113.81 992.742C1084.34 1001.37 1053.16 1006 1020.9 1006Z" fill="#123456"/>
<path fill-rule="evenodd" clip-rule="evenodd" d="M480.904 1006C663.158 1006 810.904 858.254 810.904 676C810.904 493.746 663.158 346 480.904 346C448.646 346 417.468 350.629 388 359.258C396.04 358.425 404.179 358 412.404 358C562.902 358 684.904 500.373 684.904 676C684.904 851.627 562.902 994 412.404 994C404.179 994 396.04 993.575 388 992.742C417.468 1001.37 448.646 1006 480.904 1006Z" fill="#123456"/>
<path d="M2030.32 1035V955.455L2276.41 700.483C2302.69 672.784 2324.35 648.518 2341.4 627.685C2358.68 606.615 2371.58 586.61 2380.1 567.67C2388.63 548.731 2392.89 528.608 2392.89 507.301C2392.89 483.153 2387.21 462.32 2375.84 444.801C2364.48 427.045 2348.97 413.433 2329.32 403.963C2309.67 394.257 2287.54 389.403 2262.92 389.403C2236.87 389.403 2214.15 394.73 2194.73 405.384C2175.32 416.037 2160.41 431.07 2149.99 450.483C2139.57 469.896 2134.37 492.623 2134.37 518.665H2029.61C2029.61 474.394 2039.79 435.687 2060.15 402.543C2080.51 369.399 2108.44 343.712 2143.95 325.483C2179.46 307.017 2219.83 297.784 2265.05 297.784C2310.74 297.784 2350.98 306.899 2385.79 325.128C2420.82 343.12 2448.17 367.741 2467.82 398.991C2487.47 430.005 2497.29 465.043 2497.29 504.105C2497.29 531.094 2492.2 557.491 2482.02 583.295C2472.08 609.1 2454.68 637.865 2429.82 669.588C2404.96 701.075 2370.4 739.309 2326.13 784.29L2181.6 935.568V940.895H2509.01V1035H2030.32Z" fill="#123456"/>
</svg>
