<svg width="1940" height="1452" viewBox="0 0 1940 1452" fill="none" xmlns="http://www.w3.org/2000/svg">
<path fill-rule="evenodd" clip-rule="evenodd" d="M632.904 1182C450.65 1182 302.904 1034.25 302.904 852C302.904 669.746 450.65 522 632.904 522C665.163 522 696.34 526.629 725.809 535.258C717.769 534.425 709.629 534 701.404 534C550.907 534 428.904 676.373 428.904 852C428.904 1027.63 550.907 1170 701.404 1170C709.629 1170 717.769 1169.57 725.809 1168.74C696.34 1177.37 665.163 1182 632.904 1182Z" fill="#123456"/>
<path fill-rule="evenodd" clip-rule="evenodd" d="M92.9045 1182C275.158 1182 422.904 1034.25 422.904 852C422.904 669.746 275.158 522 92.9045 522C60.6459 522 29.4685 526.629 0 535.258C8.03954 534.425 16.1795 534 24.4045 534C174.902 534 296.904 676.373 296.904 852C296.904 1027.63 174.902 1170 24.4045 1170C16.1795 1170 8.03954 1169.57 0 1168.74C29.4685 1177.37 60.6459 1182 92.9045 1182Z" fill="#123456"/>
<path fill-rule="evenodd" clip-rule="evenodd" d="M1846.9 1182C1664.65 1182 1516.9 1034.25 1516.9 852C1516.9 669.746 1664.65 522 1846.9 522C1879.16 522 1910.34 526.629 1939.81 535.258C1931.77 534.425 1923.63 534 1915.4 534C1764.91 534 1642.9 676.373 1642.9 852C1642.9 1027.63 1764.91 1170 1915.4 1170C1923.63 1170 1931.77 1169.57 1939.81 1168.74C1910.34 1177.37 1879.16 1182 1846.9 1182Z" fill="#123456"/>
<path fill-rule="evenodd" clip-rule="evenodd" d="M1306.9 1182C1489.16 1182 1636.9 1034.25 1636.9 852C1636.9 669.746 1489.16 522 1306.9 522C1274.65 522 1243.47 526.629 1214 535.258C1222.04 534.425 1230.18 534 1238.4 534C1388.9 534 1510.9 676.373 1510.9 852C1510.9 1027.63 1388.9 1170 1238.4 1170C1230.18 1170 1222.04 1169.57 1214 1168.74C1243.47 1177.37 1274.65 1182 1306.9 1182Z" fill="#123456"/>
<path d="M969.84 1173.08C941.715 1173.08 917.567 1163.14 897.397 1143.25C877.511 1123.08 867.567 1098.93 867.567 1070.81C867.567 1042.97 877.511 1019.1 897.397 999.216C917.567 979.33 941.715 969.386 969.84 969.386C997.113 969.386 1020.98 979.33 1041.43 999.216C1061.89 1019.1 1072.11 1042.97 1072.11 1070.81C1072.11 1089.56 1067.28 1106.74 1057.62 1122.37C1048.25 1137.71 1035.89 1150.07 1020.55 1159.44C1005.21 1168.53 988.306 1173.08 969.84 1173.08ZM969.84 714.557C941.715 714.557 917.567 704.614 897.397 684.727C877.511 664.841 867.567 640.693 867.567 612.284C867.567 584.443 877.511 560.722 897.397 541.119C917.567 521.233 941.715 511.29 969.84 511.29C997.113 511.29 1020.98 521.233 1041.43 541.119C1061.89 560.722 1072.11 584.443 1072.11 612.284C1072.11 631.318 1067.28 648.648 1057.62 664.273C1048.25 679.614 1035.89 691.83 1020.55 700.92C1005.21 710.011 988.306 714.557 969.84 714.557Z" fill="#123456"/>
</svg>
