<svg width="950" height="977" viewBox="0 0 950 977" fill="none" xmlns="http://www.w3.org/2000/svg">
<path fill-rule="evenodd" clip-rule="evenodd" d="M632.905 977C450.651 977 302.905 829.254 302.905 647C302.905 464.746 450.651 317 632.905 317C665.163 317 696.341 321.629 725.809 330.258C717.77 329.425 709.63 329 701.405 329C550.907 329 428.905 471.373 428.905 647C428.905 822.627 550.907 965 701.405 965C709.63 965 717.77 964.575 725.809 963.742C696.341 972.371 665.163 977 632.905 977Z" fill="#123456"/>
<path fill-rule="evenodd" clip-rule="evenodd" d="M92.9045 977C275.158 977 422.904 829.254 422.904 647C422.904 464.746 275.158 317 92.9045 317C60.6459 317 29.4685 321.629 0 330.258C8.03954 329.425 16.1795 329 24.4045 329C174.902 329 296.904 471.373 296.904 647C296.904 822.627 174.902 965 24.4045 965C16.1795 965 8.03954 964.575 0 963.742C29.4685 972.371 60.6459 977 92.9045 977Z" fill="#123456"/>
<path d="M721.603 387V342.682L825.154 246.801C833.961 238.278 841.347 230.608 847.313 223.79C853.374 216.972 857.967 210.295 861.092 203.761C864.217 197.133 865.779 189.983 865.779 182.312C865.779 173.79 863.838 166.451 859.955 160.295C856.073 154.045 850.77 149.263 844.046 145.949C837.323 142.54 829.7 140.835 821.177 140.835C812.275 140.835 804.51 142.634 797.881 146.233C791.253 149.831 786.139 154.992 782.54 161.716C778.942 168.439 777.143 176.441 777.143 185.722H718.762C718.762 166.687 723.071 150.163 731.688 136.148C740.306 122.133 752.379 111.29 767.91 103.619C783.44 95.9489 801.338 92.1136 821.603 92.1136C842.436 92.1136 860.571 95.8068 876.006 103.193C891.537 110.485 903.611 120.617 912.228 133.591C920.845 146.564 925.154 161.432 925.154 178.193C925.154 189.178 922.976 200.021 918.62 210.722C914.359 221.422 906.736 233.307 895.751 246.375C884.766 259.348 869.283 274.926 849.302 293.108L806.83 334.727V336.716H928.989V387H721.603Z" fill="#123456"/>
</svg>
